<svg width="1512" height="568" viewBox="0 0 1512 568" fill="none" xmlns="http://www.w3.org/2000/svg">
<g opacity="0.33" clip-path="url(#clip0_245_225)">
<path d="M-43.0156 446.04C-43.0156 446.04 203.284 -12.4401 297.284 133.56C391.284 279.56 430.284 517.56 497.284 506.56C564.284 495.56 359.284 65.5599 478.284 141.56C597.284 217.56 1159.28 374.56 1264.28 268.56C1369.28 162.56 1244.09 38.9899 1195.68 135.01C1188.8 148.66 997.284 571.56 1086.28 544.56C1175.28 517.56 1351.28 235.56 1410.28 262.56C1469.28 289.56 1457.28 497.56 1521.28 484.56C1585.28 471.56 1824.28 238.56 1824.28 238.56" stroke="#CE2311" stroke-width="3" stroke-miterlimit="10"/>
<path d="M-56.1758 413.52C-56.1758 413.52 183.544 -30.89 277.544 115.11C371.544 261.11 410.544 499.11 477.544 488.11C544.544 477.11 339.544 47.11 458.544 123.11C577.544 199.11 1139.54 356.11 1244.54 250.11C1349.54 144.11 1224.35 20.54 1175.94 116.56C1169.06 130.21 977.544 553.11 1066.54 526.11C1155.54 499.11 1331.54 217.11 1390.54 244.11C1449.54 271.11 1437.54 479.11 1501.54 466.11C1565.54 453.11 1804.54 220.11 1804.54 220.11" stroke="#CCA812" stroke-width="3" stroke-miterlimit="10"/>
<path d="M-88.6953 400.36C-88.6953 400.36 159.585 -57.4401 253.585 88.5599C347.585 234.56 386.585 472.56 453.585 461.56C520.585 450.56 315.585 20.5599 434.585 96.5599C553.585 172.56 1115.58 329.56 1220.58 223.56C1325.58 117.56 1200.39 -6.01008 1151.98 90.0099C1145.1 103.66 953.585 526.56 1042.58 499.56C1131.58 472.56 1307.58 190.56 1366.58 217.56C1425.58 244.56 1413.58 452.56 1477.58 439.56C1541.58 426.56 1780.58 193.56 1780.58 193.56" stroke="#CCA812" stroke-width="3" stroke-miterlimit="10"/>
<path d="M-106.506 362.43C-106.506 362.43 131.714 -81.34 225.714 64.66C319.714 210.66 358.714 448.66 425.714 437.66C492.714 426.66 287.714 -3.33999 406.714 72.66C525.714 148.66 1087.71 305.66 1192.71 199.66C1297.71 93.66 1172.52 -29.91 1124.11 66.11C1117.23 79.76 925.714 502.66 1014.71 475.66C1103.71 448.66 1279.71 166.66 1338.71 193.66C1397.71 220.66 1385.71 428.66 1449.71 415.66C1513.71 402.66 1752.71 169.66 1752.71 169.66" stroke="#CE2311" stroke-width="3" stroke-miterlimit="10"/>
<path d="M-37.5957 514.17C-37.5957 514.17 223.294 8.25987 317.294 154.26C411.294 300.26 450.294 538.26 517.294 527.26C584.294 516.26 379.294 86.2599 498.294 162.26C617.294 238.26 1179.29 395.26 1284.29 289.26C1389.29 183.26 1264.1 59.6899 1215.69 155.71C1208.81 169.36 1017.29 592.26 1106.29 565.26C1195.29 538.26 1371.29 256.26 1430.29 283.26C1489.29 310.26 1477.29 518.26 1541.29 505.26C1605.29 492.26 1844.29 259.26 1844.29 259.26" stroke="#CC8512" stroke-width="3" stroke-miterlimit="10"/>
<path d="M-149.086 336.88C-149.086 336.88 105.834 -111.2 199.834 34.7999C293.834 180.8 332.834 418.8 399.834 407.8C466.834 396.8 261.834 -33.2001 380.834 42.7999C499.834 118.8 1061.83 275.8 1166.83 169.8C1271.83 63.7999 1146.64 -59.7701 1098.23 36.2499C1091.35 49.8999 899.834 472.8 988.834 445.8C1077.83 418.8 1253.83 136.8 1312.83 163.8C1371.83 190.8 1359.83 398.8 1423.83 385.8C1487.83 372.8 1726.83 139.8 1726.83 139.8" stroke="#CE2311" stroke-width="3" stroke-miterlimit="10"/>
</g>
<defs>
<clipPath id="clip0_245_225">
<rect width="1995.73" height="567.8" fill="white" transform="translate(-150.387 0.199951)"/>
</clipPath>
</defs>
</svg>
