<svg width="2154" height="643" viewBox="0 0 2154 643" fill="none" xmlns="http://www.w3.org/2000/svg">
<g opacity="0.38">
<path d="M95.957 382.573C95.957 382.573 187.607 645.051 312.293 578.694C436.979 512.338 653.315 308.843 704.469 322.114C745.903 332.864 778.002 546.253 883.506 535.931C979.205 526.567 1178.13 308.592 1240.99 318.9C1305.52 329.487 1362.91 515.11 1406.76 507.914C1469.64 497.592 1563.98 359.731 1646.54 382.573C1790.41 422.387 1959.86 27.1951 1959.86 27.1951" stroke="#CCA812" stroke-opacity="0.4" stroke-width="3" stroke-miterlimit="10"/>
<path d="M157.043 401.846C157.043 401.846 248.693 664.324 373.379 597.968C498.065 531.611 714.401 328.116 765.555 341.388C806.989 352.137 839.088 565.526 944.592 555.204C1040.29 545.841 1239.21 327.866 1302.08 338.173C1366.61 348.761 1423.99 534.383 1467.85 527.187C1530.72 516.865 1625.07 379.005 1707.63 401.846C1851.5 441.66 2020.94 46.4682 2020.94 46.4682" stroke="#B94300" stroke-opacity="0.4" stroke-width="3" stroke-miterlimit="10"/>
<path d="M126.33 393.161C126.33 393.161 217.98 655.639 342.666 589.282C467.352 522.925 683.689 319.431 734.842 332.702C776.276 343.452 808.375 556.841 913.879 546.519C1009.58 537.155 1208.5 319.18 1271.37 329.487C1335.89 340.075 1393.28 525.697 1437.13 518.501C1500.01 508.179 1594.36 370.319 1676.92 393.161C1820.79 432.975 1990.23 37.7827 1990.23 37.7827" stroke="#CC8512" stroke-opacity="0.4" stroke-width="3" stroke-miterlimit="10"/>
<path d="M188.225 410.487C188.225 410.487 279.874 672.965 404.561 606.609C529.247 540.252 745.583 336.757 796.736 350.029C838.171 360.778 870.269 574.167 975.773 563.845C1071.47 554.481 1270.4 336.507 1333.26 346.814C1397.79 357.402 1455.18 543.024 1499.03 535.828C1561.91 525.506 1656.25 387.646 1738.81 410.487C1882.68 450.301 2052.13 55.1092 2052.13 55.1092" stroke="#B94300" stroke-opacity="0.4" stroke-width="3" stroke-miterlimit="10"/>
<path d="M221.262 419.335C221.262 419.335 312.911 681.813 437.598 615.456C562.284 549.099 778.62 345.605 829.774 358.876C871.208 369.626 903.306 583.015 1008.81 572.693C1104.51 563.329 1303.43 345.354 1366.3 355.661C1430.83 366.249 1488.21 551.871 1532.07 544.675C1594.94 534.353 1689.29 396.493 1771.85 419.335C1915.72 459.149 2085.16 63.9566 2085.16 63.9566" stroke="#CC8512" stroke-opacity="0.4" stroke-width="3" stroke-miterlimit="10"/>
<path d="M196.133 295.572C196.133 295.572 351.277 693.624 475.963 627.268C600.649 560.911 816.985 357.416 868.139 370.688C909.573 381.437 941.672 594.826 1047.18 584.504C1142.88 575.141 1341.8 357.166 1404.66 367.473C1469.19 378.061 1526.58 563.683 1570.43 556.487C1633.31 546.165 1727.65 408.305 1810.21 431.146C1954.08 470.96 2123.53 75.7682 2123.53 75.7682" stroke="#CC8512" stroke-opacity="0.4" stroke-width="3" stroke-miterlimit="10"/>
<path d="M212.119 238.062C212.119 238.062 380.051 700.997 504.738 634.641C629.424 568.284 845.76 364.789 896.913 378.061C938.348 388.81 970.446 602.199 1075.95 591.877C1171.65 582.514 1370.57 364.539 1433.44 374.846C1497.97 385.434 1555.35 571.056 1599.21 563.86C1662.08 553.538 1756.43 415.678 1838.99 438.519C1982.86 478.333 2152.3 83.1412 2152.3 83.1412" stroke="#CE2311" stroke-opacity="0.4" stroke-width="3" stroke-miterlimit="10"/>
<path d="M62.5586 374.463C62.5586 374.463 154.208 636.941 278.895 570.584C403.581 504.227 619.917 300.733 671.07 314.004C712.505 324.754 744.603 538.143 850.107 527.821C945.807 518.457 1144.73 300.482 1207.59 310.79C1272.12 321.377 1329.51 506.999 1373.36 499.803C1436.24 489.481 1530.59 351.621 1613.14 374.463C1757.01 414.277 1926.46 19.0848 1926.46 19.0848" stroke="#CC8512" stroke-opacity="0.4" stroke-width="3" stroke-miterlimit="10"/>
<path d="M32.5273 364.863C32.5273 364.863 124.177 627.341 248.863 560.984C373.55 494.628 589.886 291.133 641.039 304.405C682.473 315.154 714.572 528.543 820.076 518.221C915.775 508.857 1114.7 290.882 1177.56 301.19C1242.09 311.777 1299.48 497.4 1343.33 490.204C1406.21 479.882 1500.55 342.021 1583.11 364.863C1726.98 404.677 1896.43 9.48511 1896.43 9.48511" stroke="#CCA812" stroke-opacity="0.4" stroke-width="3" stroke-miterlimit="10"/>
<path d="M1.69727 356.473C1.69727 356.473 93.347 618.951 218.033 552.594C342.72 486.237 559.056 282.743 610.209 296.014C651.643 306.764 683.742 520.153 789.246 509.831C884.945 500.467 1083.87 282.492 1146.73 292.799C1211.26 303.387 1268.65 489.009 1312.5 481.813C1375.38 471.491 1469.72 333.631 1552.28 356.473C1696.15 396.287 1865.6 1.09473 1865.6 1.09473" stroke="#CCA812" stroke-opacity="0.4" stroke-width="3" stroke-miterlimit="10"/>
</g>
</svg>
