<svg width="2242" height="779" viewBox="0 0 2242 779" fill="none" xmlns="http://www.w3.org/2000/svg">
<path d="M1 117C506.296 222.931 3.87915 550.716 543.005 444.785C1082.13 338.855 1015.19 392.32 1067.02 506.245C1118.84 620.17 1326.14 434.292 1516.17 480.762C1706.19 527.231 1694.68 790.559 1943.72 687.126C2142.96 604.381 2224.92 608.012 2241 620.17" stroke="#3C5EA2" stroke-opacity="0.4" stroke-width="2"/>
<path d="M1 1C506.296 106.931 3.87918 434.716 543.005 328.785C1082.13 222.855 1015.19 276.32 1067.02 390.245C1118.84 504.17 1326.14 318.292 1516.17 364.762C1706.19 411.231 1694.68 674.559 1943.72 571.126C2142.96 488.381 2224.92 492.012 2241 504.17" stroke="#3E62DF" stroke-opacity="0.4" stroke-width="2"/>
<path d="M1 32C506.296 137.931 3.87918 465.716 543.005 359.785C1082.13 253.855 1015.19 307.32 1067.02 421.245C1118.84 535.17 1326.14 349.292 1516.17 395.762C1706.19 442.231 1694.68 705.559 1943.72 602.126C2142.96 519.381 2224.92 523.012 2241 535.17" stroke="#412BC8" stroke-opacity="0.4" stroke-width="2"/>
<path d="M1 63C506.296 168.931 3.87918 496.716 543.005 390.785C1082.13 284.855 1015.19 338.32 1067.02 452.245C1118.84 566.17 1326.14 380.292 1516.17 426.762C1706.19 473.231 1694.68 736.559 1943.72 633.126C2142.96 550.381 2224.92 554.012 2241 566.17" stroke="#3C5EA2" stroke-opacity="0.4" stroke-width="2"/>
<path d="M1 91C506.296 196.931 3.87918 524.716 543.005 418.785C1082.13 312.855 1015.19 366.32 1067.02 480.245C1118.84 594.17 1326.14 408.292 1516.17 454.762C1706.19 501.231 1694.68 764.559 1943.72 661.126C2142.96 578.381 2224.92 582.012 2241 594.17" stroke="#3C5EA2" stroke-opacity="0.4" stroke-width="2"/>
<path d="M1 184C506.296 289.931 3.87918 617.716 543.005 511.785C1082.13 405.855 1015.19 459.32 1067.02 573.245C1118.84 687.17 1326.14 501.292 1516.17 547.762C1706.19 594.231 1694.68 857.559 1943.72 754.126C2142.96 671.381 2224.92 675.012 2241 687.17" stroke="#3C5EA2" stroke-opacity="0.4" stroke-width="2"/>
<path d="M1 161C506.296 266.931 3.87918 594.716 543.005 488.785C1082.13 382.855 1015.19 436.32 1067.02 550.245C1118.84 664.17 1326.14 478.292 1516.17 524.762C1706.19 571.231 1694.68 834.559 1943.72 731.126C2142.96 648.381 2224.92 652.012 2241 664.17" stroke="#3E62DF" stroke-opacity="0.4" stroke-width="2"/>
<path d="M1 140C506.296 245.931 3.87918 573.716 543.005 467.785C1082.13 361.855 1015.19 415.32 1067.02 529.245C1118.84 643.17 1326.14 457.292 1516.17 503.762C1706.19 550.231 1694.68 813.559 1943.72 710.126C2142.96 627.381 2224.92 631.012 2241 643.17" stroke="#412BC8" stroke-opacity="0.4" stroke-width="2"/>
</svg>
