<svg width="1512" height="431" viewBox="0 0 1512 431" fill="none" xmlns="http://www.w3.org/2000/svg">
<g opacity="0.4" clip-path="url(#clip0_293_252)">
<path d="M-29.8613 2.61011C-29.8613 2.61011 248.049 482.29 297.889 408.72C347.719 335.15 402.799 87.9601 447.379 129.16C491.969 170.36 568.759 321.28 620.479 320.44C664.399 319.73 782.899 254.26 814.559 255.7C848.419 257.24 919.469 346.93 969.299 320.44C1019.13 293.96 1166 14.3901 1210.59 52.6501C1255.18 90.9101 1302.38 485.23 1354.84 423.44C1407.29 361.64 1415.16 252.76 1459.75 299.84C1504.34 346.92 1493.85 449.92 1535.81 411.66C1577.77 373.4 1800.7 161.53 1800.7 161.53" stroke="#132CA8" stroke-width="2" stroke-miterlimit="10"/>
<path d="M-37.9609 85.2999C-37.9609 85.2999 196.679 476.55 246.509 402.98C296.339 329.41 351.419 82.2199 395.999 123.42C440.589 164.62 517.379 315.54 569.099 314.7C613.019 313.99 731.519 248.52 763.179 249.96C797.039 251.5 868.089 341.19 917.919 314.7C967.749 288.22 1114.62 8.64993 1159.21 46.9099C1203.8 85.1699 1251 479.49 1303.46 417.7C1355.91 355.9 1363.78 247.02 1408.37 294.1C1452.96 341.18 1442.47 444.18 1484.43 405.92C1526.39 367.66 1749.32 155.79 1749.32 155.79" stroke="#132CA8" stroke-width="2" stroke-miterlimit="10"/>
<path d="M-67.1504 96.6501C-67.1504 96.6501 155.94 459.93 205.77 386.36C255.6 312.79 310.68 65.6001 355.26 106.8C399.85 148 476.64 298.92 528.36 298.08C572.28 297.37 690.78 231.9 722.44 233.34C756.3 234.88 827.35 324.57 877.18 298.08C927.01 271.6 1073.88 -7.96994 1118.47 30.2901C1163.06 68.5501 1210.26 462.87 1262.72 401.08C1315.17 339.28 1323.04 230.4 1367.63 277.48C1412.22 324.56 1401.73 427.56 1443.69 389.3C1485.65 351.04 1708.58 139.17 1708.58 139.17" stroke="#008AFC" stroke-width="2" stroke-miterlimit="10"/>
<path d="M-5.75977 225.55C-5.75977 225.55 109.64 443.31 159.47 369.74C209.3 296.17 264.38 48.9799 308.96 90.1799C353.55 131.38 430.34 282.3 482.06 281.46C525.98 280.75 644.48 215.28 676.14 216.72C710 218.26 781.05 307.95 830.88 281.46C880.71 254.98 1027.58 -24.5901 1072.17 13.6699C1116.76 51.9299 1163.96 446.25 1216.42 384.46C1268.87 322.66 1276.74 213.78 1321.33 260.86C1365.92 307.94 1355.43 410.94 1397.39 372.68C1439.35 334.42 1662.28 122.55 1662.28 122.55" stroke="#167BA3" stroke-width="2" stroke-miterlimit="10"/>
<path d="M-50.2012 217.24C-50.2012 217.24 65.1988 435 115.029 361.43C164.859 287.86 219.939 40.67 264.519 81.87C309.109 123.07 385.899 273.99 437.619 273.15C481.539 272.44 600.039 206.97 631.699 208.41C665.559 209.95 736.609 299.64 786.439 273.15C836.269 246.66 983.149 -32.9 1027.73 5.36C1072.32 43.62 1119.52 437.94 1171.98 376.15C1224.43 314.35 1232.3 205.47 1276.89 252.55C1321.48 299.63 1310.99 402.63 1352.95 364.37C1394.91 326.11 1617.84 114.24 1617.84 114.24" stroke="#167BA3" stroke-width="2" stroke-miterlimit="10"/>
</g>
<defs>
<clipPath id="clip0_293_252">
<rect width="1869.39" height="430.23" fill="white" transform="translate(-68 0.77002)"/>
</clipPath>
</defs>
</svg>
