<svg width="2118" height="493" viewBox="0 0 2118 493" fill="none" xmlns="http://www.w3.org/2000/svg">
<path d="M220.309 1.5C318.177 54.3 397.346 165.167 424.698 214C445.916 254.167 518.389 335.9 638.536 341.5C788.719 348.5 828.006 152.5 992.611 214C1157.22 275.5 1117.43 424.5 1309.89 410C1502.34 395.5 1460.07 197 1586.88 284.5C1713.69 372 1748.5 591.5 1910.62 438C2040.32 315.2 2102.25 344.5 2117 374.5" stroke="#008555" stroke-opacity="0.4" stroke-width="2"/>
<path d="M186.988 1C284.856 53.8 364.026 164.667 391.377 213.5C412.595 253.667 485.068 335.4 605.215 341C755.399 348 794.686 152 959.291 213.5C1123.9 275 1084.11 424 1276.57 409.5C1469.02 395 1426.75 196.5 1553.56 284C1680.37 371.5 1715.18 591 1877.3 437.5C2007 314.7 2068.93 344 2083.68 374" stroke="#008528" stroke-opacity="0.4" stroke-width="2"/>
<path d="M160.633 1.5C258.501 54.3 337.671 165.167 365.022 214C386.24 254.167 458.713 335.9 578.86 341.5C729.044 348.5 768.33 152.5 932.935 214C1097.54 275.5 1057.76 424.5 1250.21 410C1442.67 395.5 1400.39 197 1527.21 284.5C1654.02 372 1688.83 591.5 1850.95 438C1980.64 315.2 2042.57 344.5 2057.32 374.5" stroke="#29B352" stroke-opacity="0.4" stroke-width="2"/>
<path d="M127.314 1C225.183 53.8 304.352 164.667 331.704 213.5C352.922 253.667 425.394 335.4 545.541 341C695.725 348 735.012 152 899.617 213.5C1064.22 275 1024.44 424 1216.89 409.5C1409.35 395 1367.08 196.5 1493.89 284C1620.7 371.5 1655.51 591 1817.63 437.5C1947.32 314.7 2009.25 344 2024.01 374" stroke="#29B352" stroke-opacity="0.4" stroke-width="2"/>
<path d="M93.9941 1.5C191.862 54.3 271.032 165.167 298.383 214C319.601 254.167 392.074 335.9 512.221 341.5C662.405 348.5 701.691 152.5 866.297 214C1030.9 275.5 991.118 424.5 1183.57 410C1376.03 395.5 1333.76 197 1460.57 284.5C1587.38 372 1622.19 591.5 1784.31 438C1914 315.2 1975.93 344.5 1990.69 374.5" stroke="#008528" stroke-opacity="0.4" stroke-width="2"/>
<path d="M60.6758 1C158.544 53.8 237.714 164.667 265.065 213.5C286.283 253.667 358.756 335.4 478.903 341C629.087 348 668.373 152 832.978 213.5C997.584 275 957.8 424 1150.25 409.5C1342.71 395 1300.44 196.5 1427.25 284C1554.06 371.5 1588.87 591 1750.99 437.5C1880.68 314.7 1942.61 344 1957.37 374" stroke="#30B97F" stroke-opacity="0.4" stroke-width="2"/>
<path d="M34.3184 1.5C132.186 54.3 211.356 165.167 238.708 214C259.926 254.167 332.398 335.9 452.545 341.5C602.729 348.5 642.016 152.5 806.621 214C971.226 275.5 931.443 424.5 1123.9 410C1316.35 395.5 1274.08 197 1400.89 284.5C1527.7 372 1562.51 591.5 1724.63 438C1854.33 315.2 1916.26 344.5 1931.01 374.5" stroke="#29B352" stroke-opacity="0.4" stroke-width="2"/>
<path d="M1 1C98.8681 53.8 178.038 164.667 205.389 213.5C226.607 253.667 299.08 335.4 419.227 341C569.411 348 608.697 152 773.303 213.5C937.908 275 898.124 424 1090.58 409.5C1283.03 395 1240.76 196.5 1367.57 284C1494.38 371.5 1529.19 591 1691.31 437.5C1821.01 314.7 1882.94 344 1897.69 374" stroke="#29B352" stroke-opacity="0.4" stroke-width="2"/>
</svg>
