<svg width="109" height="127" viewBox="0 0 109 127" fill="none" xmlns="http://www.w3.org/2000/svg">
<g clip-path="url(#clip0_515_2238)">
<path d="M59.4902 67C61.0702 67 62.3702 66.19 63.4902 64.87C58.2202 58.67 56.9102 41 49.4902 41C47.9102 41 46.6102 41.81 45.4902 43.13C50.7602 49.33 52.0702 67 59.4902 67Z" stroke="#CF7C29" stroke-width="2" stroke-miterlimit="10"/>
<path d="M31.4902 67C38.9102 67 40.2202 49.34 45.4902 43.13C44.3702 41.81 43.0702 41 41.4902 41C34.0702 41 32.7602 58.66 27.4902 64.87C28.6102 66.19 29.9102 67 31.4902 67Z" stroke="#CF7C29" stroke-width="2" stroke-miterlimit="10"/>
<path d="M67.4902 67C74.9102 67 76.2202 49.34 81.4902 43.13C80.3702 41.81 79.0702 41 77.4902 41C70.0702 41 68.7602 58.66 63.4902 64.87C64.6102 66.19 65.9102 67 67.4902 67Z" stroke="#CF7C29" stroke-width="2" stroke-miterlimit="10"/>
<path d="M27.4998 64.87C26.3798 66.19 25.0798 67 23.4998 67C16.5698 67 14.9698 51.62 10.5098 44.52C14.8598 24.22 32.8998 9 54.4998 9C79.3498 9 99.4998 29.15 99.4998 54C99.4998 57.25 99.1498 60.42 98.4898 63.48C94.0298 56.38 92.4298 41 85.4998 41C83.9198 41 82.6198 41.81 81.4998 43.13C80.3798 41.81 79.0798 41 77.4998 41C70.0798 41 68.7698 58.67 63.4998 64.87C58.2298 58.66 56.9198 41 49.4998 41C47.9198 41 46.6198 41.81 45.4998 43.13C44.3798 41.81 43.0798 41 41.4998 41C34.0798 41 32.7698 58.67 27.4998 64.87ZM27.4998 64.87C22.2298 58.67 20.9198 41 13.5098 41C20.9298 41 22.2298 58.66 27.4998 64.87Z" stroke="#CF7C29" stroke-width="2" stroke-miterlimit="10"/>
<path d="M81.5 43.13C82.62 41.81 83.92 41 85.5 41C92.42 41 94.02 56.38 98.49 63.48C94.14 83.78 76.1 99 54.5 99C29.65 99 9.5 78.85 9.5 54C9.5 50.74 9.85 47.58 10.51 44.52C14.98 51.62 16.58 67 23.5 67C25.08 67 26.38 66.19 27.5 64.87C28.62 66.19 29.92 67 31.5 67C38.92 67 40.23 49.33 45.5 43.13C50.77 49.34 52.08 67 59.5 67C61.08 67 62.38 66.19 63.5 64.87C64.62 66.19 65.92 67 67.5 67C74.92 67 76.23 49.33 81.5 43.13ZM81.5 43.13C86.77 49.33 88.08 67 95.5 67C88.08 67 86.77 49.34 81.5 43.13Z" stroke="#CF7C29" stroke-width="2" stroke-miterlimit="10"/>
<path d="M54.5 102C81.0097 102 102.5 80.5097 102.5 54C102.5 27.4903 81.0097 6 54.5 6C27.9903 6 6.5 27.4903 6.5 54C6.5 80.5097 27.9903 102 54.5 102Z" stroke="#CF7C29" stroke-width="12" stroke-miterlimit="10"/>
</g>
<path d="M9.97 123.12C9.22 123.12 8.56 122.96 7.99 122.64C7.43 122.31 6.995 121.85 6.685 121.26C6.375 120.66 6.22 119.97 6.22 119.19V116.31C6.22 115.53 6.375 114.845 6.685 114.255C7.005 113.655 7.45 113.195 8.02 112.875C8.6 112.545 9.265 112.38 10.015 112.38H11.665C12.385 112.38 13.02 112.53 13.57 112.83C14.12 113.12 14.545 113.535 14.845 114.075C15.145 114.605 15.295 115.22 15.295 115.92H13.57C13.57 115.32 13.395 114.84 13.045 114.48C12.695 114.11 12.235 113.925 11.665 113.925H10.015C9.405 113.925 8.91 114.15 8.53 114.6C8.16 115.04 7.975 115.63 7.975 116.37V119.13C7.975 119.87 8.155 120.465 8.515 120.915C8.885 121.355 9.37 121.575 9.97 121.575H11.68C12.26 121.575 12.735 121.37 13.105 120.96C13.475 120.55 13.66 120.025 13.66 119.385V118.875H10.75V117.345H15.385V119.385C15.385 120.115 15.23 120.765 14.92 121.335C14.61 121.895 14.175 122.335 13.615 122.655C13.055 122.965 12.41 123.12 11.68 123.12H9.97ZM19.3019 123.12C18.5419 123.12 17.9269 122.93 17.4569 122.55C16.9969 122.16 16.7669 121.645 16.7669 121.005V120.465C16.7669 119.835 17.0069 119.33 17.4869 118.95C17.9769 118.57 18.6169 118.38 19.4069 118.38H20.3369C20.6169 118.38 20.9169 118.42 21.2369 118.5C21.5569 118.58 21.8419 118.685 22.0919 118.815V117.885C22.0919 117.575 21.9919 117.325 21.7919 117.135C21.5919 116.945 21.3319 116.85 21.0119 116.85H19.7519C19.4219 116.85 19.1569 116.93 18.9569 117.09C18.7569 117.24 18.6569 117.44 18.6569 117.69H16.9769C16.9769 117 17.2319 116.445 17.7419 116.025C18.2519 115.605 18.9219 115.395 19.7519 115.395H21.0119C21.8519 115.395 22.5269 115.625 23.0369 116.085C23.5469 116.535 23.8019 117.135 23.8019 117.885V123H22.1969V122.055C21.9569 122.375 21.6569 122.635 21.2969 122.835C20.9369 123.025 20.5819 123.12 20.2319 123.12H19.3019ZM20.3369 121.77C20.7369 121.77 21.0969 121.66 21.4169 121.44C21.7369 121.21 21.9619 120.91 22.0919 120.54V120.18C21.9219 120.04 21.6819 119.93 21.3719 119.85C21.0619 119.76 20.7369 119.715 20.3969 119.715H19.4519C19.1519 119.715 18.9069 119.79 18.7169 119.94C18.5369 120.09 18.4469 120.285 18.4469 120.525V120.945C18.4469 121.195 18.5419 121.395 18.7319 121.545C18.9219 121.695 19.1719 121.77 19.4819 121.77H20.3369ZM28.0498 123C27.2098 123 26.5948 122.825 26.2048 122.475C25.8248 122.115 25.6348 121.55 25.6348 120.78V112.5H27.3598V120.705C27.3598 120.995 27.4198 121.205 27.5398 121.335C27.6598 121.455 27.8598 121.515 28.1398 121.515H28.8598V123H28.0498ZM32.2686 123C31.4286 123 30.8136 122.825 30.4236 122.475C30.0436 122.115 29.8536 121.55 29.8536 120.78V112.5H31.5786V120.705C31.5786 120.995 31.6386 121.205 31.7586 121.335C31.8786 121.455 32.0786 121.515 32.3586 121.515H33.0786V123H32.2686ZM40.3102 120.405H36.1402L35.1652 123H33.3502L37.4302 112.5H38.2252C38.7652 112.5 39.1402 112.765 39.3502 113.295L43.1002 123H41.2702L40.3102 120.405ZM36.6352 118.935H39.8152L38.2402 114.675H38.2252L36.6352 118.935ZM46.7196 123.12C45.7996 123.12 45.0596 122.855 44.4996 122.325C43.9496 121.795 43.6746 121.095 43.6746 120.225V118.335C43.6746 117.755 43.7996 117.245 44.0496 116.805C44.2996 116.355 44.6546 116.01 45.1146 115.77C45.5746 115.52 46.1046 115.395 46.7046 115.395H47.9046C48.7646 115.395 49.4546 115.645 49.9746 116.145C50.5046 116.635 50.7696 117.285 50.7696 118.095H49.0746C49.0746 117.735 48.9646 117.445 48.7446 117.225C48.5346 116.995 48.2546 116.88 47.9046 116.88H46.7196C46.3296 116.88 46.0096 117.025 45.7596 117.315C45.5196 117.605 45.3996 117.98 45.3996 118.44V120.12C45.3996 120.57 45.5196 120.935 45.7596 121.215C46.0096 121.495 46.3346 121.635 46.7346 121.635H47.9196C48.2896 121.635 48.5846 121.5 48.8046 121.23C49.0346 120.96 49.1496 120.61 49.1496 120.18H50.8446C50.8446 121.06 50.5746 121.77 50.0346 122.31C49.5046 122.85 48.7996 123.12 47.9196 123.12H46.7196ZM55.011 123.12C54.091 123.12 53.351 122.855 52.791 122.325C52.231 121.785 51.951 121.075 51.951 120.195V118.335C51.951 117.755 52.076 117.245 52.326 116.805C52.586 116.355 52.946 116.01 53.406 115.77C53.876 115.52 54.416 115.395 55.026 115.395H56.346C56.956 115.395 57.491 115.52 57.951 115.77C58.421 116.01 58.781 116.355 59.031 116.805C59.291 117.245 59.421 117.755 59.421 118.335V120.195C59.421 121.075 59.136 121.785 58.566 122.325C58.006 122.855 57.256 123.12 56.316 123.12H55.011ZM56.301 121.635C56.721 121.635 57.056 121.495 57.306 121.215C57.566 120.925 57.696 120.55 57.696 120.09V118.425C57.696 117.965 57.571 117.595 57.321 117.315C57.071 117.025 56.736 116.88 56.316 116.88H55.056C54.636 116.88 54.301 117.025 54.051 117.315C53.801 117.595 53.676 117.965 53.676 118.425V120.09C53.676 120.55 53.801 120.925 54.051 121.215C54.301 121.495 54.626 121.635 55.026 121.635H56.301ZM63.4701 123.12C62.7201 123.12 62.1101 122.865 61.6401 122.355C61.1801 121.835 60.9501 121.16 60.9501 120.33V115.515H62.6751V120.36C62.6751 120.74 62.7651 121.045 62.9451 121.275C63.1351 121.505 63.3801 121.62 63.6801 121.62H64.5801C64.9601 121.62 65.3001 121.47 65.6001 121.17C65.9101 120.86 66.1201 120.46 66.2301 119.97V115.515H67.9551V123H66.3351V121.98C66.1151 122.32 65.8251 122.595 65.4651 122.805C65.1151 123.015 64.7801 123.12 64.4601 123.12H63.4701ZM72.3481 123.12C71.4881 123.12 70.7981 122.89 70.2781 122.43C69.7581 121.97 69.4981 121.36 69.4981 120.6H71.1931C71.1931 120.92 71.2981 121.18 71.5081 121.38C71.7181 121.57 71.9981 121.665 72.3481 121.665H73.6831C74.0231 121.665 74.2881 121.61 74.4781 121.5C74.6781 121.38 74.7781 121.22 74.7781 121.02V120.69C74.7781 120.55 74.7181 120.43 74.5981 120.33C74.4881 120.23 74.3331 120.16 74.1331 120.12L71.5381 119.67C70.9581 119.57 70.4981 119.36 70.1581 119.04C69.8181 118.71 69.6481 118.33 69.6481 117.9V117.405C69.6481 116.785 69.8931 116.295 70.3831 115.935C70.8831 115.575 71.5681 115.395 72.4381 115.395H73.6381C74.4281 115.395 75.0681 115.61 75.5581 116.04C76.0481 116.47 76.2931 117.035 76.2931 117.735H74.5981C74.5981 117.465 74.5081 117.25 74.3281 117.09C74.1581 116.93 73.9281 116.85 73.6381 116.85H72.4531C72.1031 116.85 71.8331 116.905 71.6431 117.015C71.4531 117.125 71.3581 117.28 71.3581 117.48V117.78C71.3581 117.92 71.4131 118.04 71.5231 118.14C71.6431 118.24 71.7981 118.305 71.9881 118.335L74.6731 118.815C75.2231 118.925 75.6631 119.135 75.9931 119.445C76.3231 119.755 76.4881 120.12 76.4881 120.54V121.095C76.4881 121.715 76.2331 122.21 75.7231 122.58C75.2131 122.94 74.5331 123.12 73.6831 123.12H72.3481ZM81.0361 123C80.1861 123 79.5661 122.81 79.1761 122.43C78.7861 122.05 78.5911 121.45 78.5911 120.63V117H77.2711V115.515H78.6361V113.25H80.3161V115.515H82.2661V117H80.3161V120.57C80.3161 120.9 80.3811 121.14 80.5111 121.29C80.6411 121.44 80.8461 121.515 81.1261 121.515H82.2661V123H81.0361ZM85.0166 114.675C84.6766 114.675 84.4016 114.575 84.1916 114.375C83.9916 114.165 83.8916 113.9 83.8916 113.58C83.8916 113.26 83.9916 113 84.1916 112.8C84.4016 112.59 84.6766 112.485 85.0166 112.485C85.3566 112.485 85.6316 112.59 85.8416 112.8C86.0516 113 86.1566 113.26 86.1566 113.58C86.1566 113.9 86.0516 114.165 85.8416 114.375C85.6316 114.575 85.3566 114.675 85.0166 114.675ZM84.1616 115.515H85.8866V123H84.1616V115.515ZM90.8261 123.12C89.9061 123.12 89.1661 122.855 88.6061 122.325C88.0561 121.795 87.7811 121.095 87.7811 120.225V118.335C87.7811 117.755 87.9061 117.245 88.1561 116.805C88.4061 116.355 88.7611 116.01 89.2211 115.77C89.6811 115.52 90.2111 115.395 90.8111 115.395H92.0111C92.8711 115.395 93.5611 115.645 94.0811 116.145C94.6111 116.635 94.8761 117.285 94.8761 118.095H93.1811C93.1811 117.735 93.0711 117.445 92.8511 117.225C92.6411 116.995 92.3611 116.88 92.0111 116.88H90.8261C90.4361 116.88 90.1161 117.025 89.8661 117.315C89.6261 117.605 89.5061 117.98 89.5061 118.44V120.12C89.5061 120.57 89.6261 120.935 89.8661 121.215C90.1161 121.495 90.4411 121.635 90.8411 121.635H92.0261C92.3961 121.635 92.6911 121.5 92.9111 121.23C93.1411 120.96 93.2561 120.61 93.2561 120.18H94.9511C94.9511 121.06 94.6811 121.77 94.1411 122.31C93.6111 122.85 92.9061 123.12 92.0261 123.12H90.8261ZM98.8325 123.12C97.9725 123.12 97.2825 122.89 96.7625 122.43C96.2425 121.97 95.9825 121.36 95.9825 120.6H97.6775C97.6775 120.92 97.7825 121.18 97.9925 121.38C98.2025 121.57 98.4825 121.665 98.8325 121.665H100.167C100.507 121.665 100.772 121.61 100.962 121.5C101.162 121.38 101.262 121.22 101.262 121.02V120.69C101.262 120.55 101.202 120.43 101.082 120.33C100.972 120.23 100.817 120.16 100.617 120.12L98.0225 119.67C97.4425 119.57 96.9825 119.36 96.6425 119.04C96.3025 118.71 96.1325 118.33 96.1325 117.9V117.405C96.1325 116.785 96.3775 116.295 96.8675 115.935C97.3675 115.575 98.0525 115.395 98.9225 115.395H100.122C100.912 115.395 101.552 115.61 102.042 116.04C102.532 116.47 102.777 117.035 102.777 117.735H101.082C101.082 117.465 100.992 117.25 100.812 117.09C100.642 116.93 100.412 116.85 100.122 116.85H98.9375C98.5875 116.85 98.3175 116.905 98.1275 117.015C97.9375 117.125 97.8425 117.28 97.8425 117.48V117.78C97.8425 117.92 97.8975 118.04 98.0075 118.14C98.1275 118.24 98.2825 118.305 98.4725 118.335L101.157 118.815C101.707 118.925 102.147 119.135 102.477 119.445C102.807 119.755 102.972 120.12 102.972 120.54V121.095C102.972 121.715 102.717 122.21 102.207 122.58C101.697 122.94 101.017 123.12 100.167 123.12H98.8325Z" fill="#CF7C29"/>
<defs>
<clipPath id="clip0_515_2238">
<rect width="108" height="108" fill="white" transform="translate(0.5)"/>
</clipPath>
</defs>
</svg>
