<svg width="196" height="49" viewBox="0 0 196 49" fill="none" xmlns="http://www.w3.org/2000/svg">
<path d="M42 9.25595V39.9618C42 40.6639 41.7211 41.3372 41.2247 41.8336C40.7283 42.33 40.055 42.6089 39.3529 42.6089H8.64706C7.94502 42.6089 7.27173 42.33 6.77531 41.8336C6.27889 41.3372 6 40.6639 6 39.9618V9.25595C6 8.5539 6.27889 7.88061 6.77531 7.38419C7.27173 6.88777 7.94502 6.60889 8.64706 6.60889H39.3529C40.055 6.60889 40.7283 6.88777 41.2247 7.38419C41.7211 7.88061 42 8.5539 42 9.25595ZM16.5882 20.3736H11.2941V37.3148H16.5882V20.3736ZM17.0647 14.5501C17.0675 14.1496 16.9914 13.7525 16.8407 13.3815C16.69 13.0104 16.4677 12.6727 16.1866 12.3876C15.9054 12.1024 15.5707 11.8755 15.2018 11.7197C14.8329 11.5639 14.4369 11.4822 14.0365 11.4795H13.9412C13.1268 11.4795 12.3458 11.803 11.7699 12.3788C11.1941 12.9547 10.8706 13.7357 10.8706 14.5501C10.8706 15.3644 11.1941 16.1455 11.7699 16.7213C12.3458 17.2971 13.1268 17.6207 13.9412 17.6207C14.3417 17.6305 14.7402 17.5613 15.1139 17.4171C15.4877 17.2729 15.8293 17.0565 16.1194 16.7802C16.4095 16.5039 16.6423 16.1731 16.8045 15.8068C16.9667 15.4405 17.0551 15.0458 17.0647 14.6454V14.5501ZM36.7059 27.023C36.7059 21.9301 33.4659 19.9501 30.2471 19.9501C29.1932 19.8973 28.1438 20.1218 27.2037 20.6011C26.2637 21.0804 25.4657 21.7979 24.8894 22.6818H24.7412V20.3736H19.7647V37.3148H25.0588V28.3042C24.9823 27.3813 25.273 26.4656 25.8678 25.7558C26.4625 25.0461 27.3133 24.5997 28.2353 24.5136H28.4365C30.12 24.5136 31.3694 25.5724 31.3694 28.2407V37.3148H36.6635L36.7059 27.023Z" fill="#008528"/>
<path fill-rule="evenodd" clip-rule="evenodd" d="M187.584 11.4381C189.304 11.9002 190.665 13.2609 191.127 14.9811C191.974 18.1133 192 24.6088 192 24.6088C192 24.6088 192 31.13 191.153 34.2365C190.691 35.9567 189.33 37.3174 187.61 37.7795C184.503 38.6268 172 38.6268 172 38.6268C172 38.6268 159.497 38.6268 156.39 37.7795C154.67 37.3174 153.309 35.9567 152.847 34.2365C152 31.1043 152 24.6088 152 24.6088C152 24.6088 152 18.1133 152.822 15.0067C153.284 13.2866 154.644 11.9259 156.365 11.4637C159.471 10.6165 171.974 10.5908 171.974 10.5908C171.974 10.5908 184.478 10.5908 187.584 11.4381ZM178.367 24.6088L167.995 30.6165V18.6011L178.367 24.6088Z" fill="#008528"/>
<path fill-rule="evenodd" clip-rule="evenodd" d="M120 6.60889C115.111 6.60889 114.499 6.62929 112.579 6.71689C110.663 6.80449 109.354 7.10929 108.209 7.55449C107.009 8.00569 105.92 8.71369 105.02 9.63049C104.105 10.5294 103.397 11.6171 102.944 12.8177C102.502 13.9625 102.196 15.2729 102.108 17.1893C102.022 19.1081 102 19.7189 102 24.6089C102 29.4989 102.02 30.1097 102.108 32.0297C102.196 33.9461 102.5 35.2553 102.946 36.4001C103.397 37.6001 104.105 38.6885 105.022 39.5885C105.921 40.5038 107.008 41.2122 108.209 41.6645C109.354 42.1085 110.663 42.4133 112.579 42.5009C114.499 42.5885 115.111 42.6089 120 42.6089C124.889 42.6089 125.501 42.5885 127.421 42.5009C129.337 42.4133 130.646 42.1085 131.791 41.6633C132.991 41.2121 134.08 40.5041 134.98 39.5873C135.895 38.6883 136.603 37.6007 137.056 36.4001C137.5 35.2553 137.804 33.9461 137.892 32.0297C137.98 30.1097 138 29.4977 138 24.6089C138 19.7201 137.98 19.1081 137.892 17.1881C137.804 15.2717 137.5 13.9625 137.054 12.8177C136.602 11.6166 135.894 10.5285 134.978 9.62929C134.079 8.71395 132.992 8.00552 131.791 7.55329C130.646 7.11049 129.336 6.80449 127.42 6.71689C125.501 6.63049 124.89 6.60889 120 6.60889ZM120 9.85249C124.806 9.85249 125.376 9.87049 127.274 9.95689C129.029 10.0373 129.982 10.3289 130.616 10.5773C131.456 10.9025 132.056 11.2937 132.686 11.9225C133.316 12.5525 133.706 13.1525 134.032 13.9925C134.279 14.6273 134.572 15.5801 134.652 17.3345C134.738 19.2329 134.756 19.8029 134.756 24.6089C134.756 29.4149 134.738 29.9849 134.652 31.8833C134.572 33.6377 134.28 34.5905 134.032 35.2253C133.744 36.0071 133.284 36.7145 132.686 37.2953C132.106 37.8929 131.398 38.3526 130.616 38.6405C129.982 38.8877 129.029 39.1805 127.274 39.2609C125.376 39.3473 124.807 39.3653 120 39.3653C115.193 39.3653 114.624 39.3473 112.726 39.2609C110.971 39.1805 110.018 38.8889 109.384 38.6405C108.602 38.3524 107.894 37.8927 107.314 37.2953C106.716 36.7144 106.257 36.0071 105.968 35.2253C105.721 34.5905 105.428 33.6377 105.348 31.8833C105.262 29.9849 105.244 29.4149 105.244 24.6089C105.244 19.8029 105.262 19.2329 105.348 17.3345C105.428 15.5801 105.72 14.6273 105.968 13.9925C106.294 13.1525 106.685 12.5525 107.314 11.9225C107.894 11.3249 108.602 10.8653 109.384 10.5773C110.018 10.3301 110.971 10.0373 112.726 9.95689C114.624 9.87049 115.194 9.85249 120 9.85249Z" fill="#008528"/>
<path fill-rule="evenodd" clip-rule="evenodd" d="M120 30.615C119.211 30.615 118.43 30.4596 117.702 30.1578C116.973 29.8559 116.311 29.4135 115.753 28.8558C115.195 28.2981 114.753 27.636 114.451 26.9074C114.149 26.1787 113.994 25.3977 113.994 24.609C113.994 23.8202 114.149 23.0392 114.451 22.3106C114.753 21.5819 115.195 20.9198 115.753 20.3621C116.311 19.8044 116.973 19.362 117.702 19.0601C118.43 18.7583 119.211 18.603 120 18.603C121.593 18.603 123.121 19.2357 124.247 20.3621C125.373 21.4884 126.006 23.0161 126.006 24.609C126.006 26.2018 125.373 27.7295 124.247 28.8558C123.121 29.9822 121.593 30.615 120 30.615ZM120 15.357C117.546 15.357 115.193 16.3317 113.458 18.0668C111.723 19.8019 110.748 22.1552 110.748 24.609C110.748 27.0627 111.723 29.416 113.458 31.1511C115.193 32.8862 117.546 33.861 120 33.861C122.454 33.861 124.807 32.8862 126.542 31.1511C128.277 29.416 129.252 27.0627 129.252 24.609C129.252 22.1552 128.277 19.8019 126.542 18.0668C124.807 16.3317 122.454 15.357 120 15.357ZM131.944 15.189C131.944 15.769 131.713 16.3253 131.303 16.7354C130.893 17.1455 130.337 17.376 129.757 17.376C129.177 17.376 128.62 17.1455 128.21 16.7354C127.8 16.3253 127.57 15.769 127.57 15.189C127.57 14.6089 127.8 14.0527 128.21 13.6425C128.62 13.2324 129.177 13.002 129.757 13.002C130.337 13.002 130.893 13.2324 131.303 13.6425C131.713 14.0527 131.944 14.6089 131.944 15.189Z" fill="#008528"/>
<path d="M92 24.7302C92 13.6169 83.0467 4.60889 72 4.60889C60.9533 4.60889 52 13.6169 52 24.7302C52 34.7756 59.312 43.0996 68.8747 44.6089V30.5476H63.7973V24.7289H68.8747V20.2969C68.8747 15.2542 71.86 12.4676 76.4293 12.4676C78.616 12.4676 80.9067 12.8609 80.9067 12.8609V17.8129H78.3827C75.8987 17.8129 75.1253 19.3649 75.1253 20.9569V24.7302H80.672L79.7853 30.5462H75.1253V44.6089C84.688 43.0996 92 34.7756 92 24.7302Z" fill="#008528"/>
</svg>
