<svg width="1512" height="419" viewBox="0 0 1512 419" fill="none" xmlns="http://www.w3.org/2000/svg">
<g opacity="0.4" clip-path="url(#clip0_184_186)">
<path d="M-132.76 241.96C-132.76 241.96 -46.7598 419.96 70.2402 374.96C187.24 329.96 390.24 191.96 438.24 200.96C477.12 208.25 507.24 352.96 606.24 345.96C696.04 339.61 882.7 191.79 941.69 198.78C1002.24 205.96 1056.09 331.84 1097.24 326.96C1156.24 319.96 1244.77 226.47 1322.24 241.96C1457.24 268.96 1616.24 0.959961 1616.24 0.959961" stroke="#5F5FB7" stroke-width="3" stroke-miterlimit="10"/>
<path d="M-75.4492 255.03C-75.4492 255.03 10.5508 433.03 127.551 388.03C244.551 343.03 447.551 205.03 495.551 214.03C534.431 221.32 564.551 366.03 663.551 359.03C753.351 352.68 940.011 204.86 999.001 211.85C1059.55 219.03 1113.4 344.91 1154.55 340.03C1213.55 333.03 1302.08 239.54 1379.55 255.03C1514.55 282.03 1673.55 14.03 1673.55 14.03" stroke="#5F5FB7" stroke-width="3" stroke-miterlimit="10"/>
<path d="M-104.27 249.14C-104.27 249.14 -18.2695 427.14 98.7305 382.14C215.73 337.14 418.73 199.14 466.73 208.14C505.61 215.43 535.73 360.14 634.73 353.14C724.53 346.79 911.191 198.97 970.181 205.96C1030.73 213.14 1084.58 339.02 1125.73 334.14C1184.73 327.14 1273.26 233.65 1350.73 249.14C1485.73 276.14 1644.73 8.13989 1644.73 8.13989" stroke="#A160BA" stroke-width="3" stroke-miterlimit="10"/>
<path d="M-46.1797 260.89C-46.1797 260.89 39.8203 438.89 156.82 393.89C273.82 348.89 476.82 210.89 524.82 219.89C563.7 227.18 593.82 371.89 692.82 364.89C782.62 358.54 969.28 210.72 1028.27 217.71C1088.82 224.89 1142.67 350.77 1183.82 345.89C1242.82 338.89 1331.35 245.4 1408.82 260.89C1543.82 287.89 1702.82 19.8899 1702.82 19.8899" stroke="#5F5FB7" stroke-width="3" stroke-miterlimit="10"/>
<path d="M-15.1797 266.89C-15.1797 266.89 70.8203 444.89 187.82 399.89C304.82 354.89 507.82 216.89 555.82 225.89C594.7 233.18 624.82 377.89 723.82 370.89C813.62 364.54 1000.28 216.72 1059.27 223.71C1119.82 230.89 1173.67 356.77 1214.82 351.89C1273.82 344.89 1362.35 251.4 1439.82 266.89C1574.82 293.89 1733.82 25.8899 1733.82 25.8899" stroke="#A160BA" stroke-width="3" stroke-miterlimit="10"/>
<path d="M-38.7598 182.96C-38.7598 182.96 106.82 452.9 223.82 407.9C340.82 362.9 543.82 224.9 591.82 233.9C630.7 241.19 660.82 385.9 759.82 378.9C849.62 372.55 1036.28 224.73 1095.27 231.72C1155.82 238.9 1209.67 364.78 1250.82 359.9C1309.82 352.9 1398.35 259.41 1475.82 274.9C1610.82 301.9 1769.82 33.8999 1769.82 33.8999" stroke="#5F81B7" stroke-width="3" stroke-miterlimit="10"/>
<path d="M-23.7598 143.96C-23.7598 143.96 133.82 457.9 250.82 412.9C367.82 367.9 570.82 229.9 618.82 238.9C657.7 246.19 687.82 390.9 786.82 383.9C876.62 377.55 1063.28 229.73 1122.27 236.72C1182.82 243.9 1236.67 369.78 1277.82 364.9C1336.82 357.9 1425.35 264.41 1502.82 279.9C1637.82 306.9 1796.82 38.8999 1796.82 38.8999" stroke="#5F81B7" stroke-width="3" stroke-miterlimit="10"/>
</g>
<defs>
<clipPath id="clip0_184_186">
<rect width="1932.22" height="418.61" fill="white" transform="translate(-134.109 0.189941)"/>
</clipPath>
</defs>
</svg>
